<svg width="23" height="22" viewBox="0 0 23 22" fill="none" xmlns="http://www.w3.org/2000/svg">
<path d="M5.29102 22V7.40039H0.75V22H5.29102ZM2.99609 5.44727C4.46094 5.44727 5.63281 4.22656 5.63281 2.76172C5.63281 1.3457 4.46094 0.173828 2.99609 0.173828C1.58008 0.173828 0.408203 1.3457 0.408203 2.76172C0.408203 4.22656 1.58008 5.44727 2.99609 5.44727ZM22.2344 22H22.2832V13.9922C22.2832 10.0859 21.4043 7.05859 16.8145 7.05859C14.6172 7.05859 13.1523 8.2793 12.5176 9.40234H12.4688V7.40039H8.12305V22H12.6641V14.7734C12.6641 12.8691 13.0059 11.0625 15.3496 11.0625C17.6934 11.0625 17.7422 13.2109 17.7422 14.9199V22H22.2344Z" fill="white"/>
</svg>
