<svg width="26" height="21" viewBox="0 0 26 21" fill="none" xmlns="http://www.w3.org/2000/svg">
<path d="M22.7578 5.54688C23.7344 4.81445 24.6133 3.93555 25.2969 2.91016C24.418 3.30078 23.3926 3.59375 22.3672 3.69141C23.4414 3.05664 24.2227 2.08008 24.6133 0.859375C23.6367 1.44531 22.5137 1.88477 21.3906 2.12891C20.4141 1.10352 19.0957 0.517578 17.6309 0.517578C14.7988 0.517578 12.5039 2.8125 12.5039 5.64453C12.5039 6.03516 12.5527 6.42578 12.6504 6.81641C8.40234 6.57227 4.59375 4.52148 2.05469 1.44531C1.61523 2.17773 1.37109 3.05664 1.37109 4.0332C1.37109 5.79102 2.25 7.35352 3.66602 8.28125C2.83594 8.23242 2.00586 8.03711 1.32227 7.64648V7.69531C1.32227 10.1855 3.08008 12.2363 5.42383 12.7246C5.0332 12.8223 4.54492 12.9199 4.10547 12.9199C3.76367 12.9199 3.4707 12.8711 3.12891 12.8223C3.76367 14.873 5.66797 16.3379 7.91406 16.3867C6.15625 17.7539 3.95898 18.584 1.56641 18.584C1.12695 18.584 0.736328 18.5352 0.345703 18.4863C2.5918 19.9512 5.27734 20.7812 8.20703 20.7812C17.6309 20.7812 22.7578 13.0176 22.7578 6.23047C22.7578 5.98633 22.7578 5.79102 22.7578 5.54688Z" fill="white"/>
</svg>
