<svg width="28" height="19" viewBox="0 0 28 19" fill="none" xmlns="http://www.w3.org/2000/svg">
<path d="M26.5898 3.22852C26.2969 2.05664 25.3691 1.12891 24.2461 0.835938C22.1465 0.25 13.8457 0.25 13.8457 0.25C13.8457 0.25 5.49609 0.25 3.39648 0.835938C2.27344 1.12891 1.3457 2.05664 1.05273 3.22852C0.466797 5.2793 0.466797 9.67383 0.466797 9.67383C0.466797 9.67383 0.466797 14.0195 1.05273 16.1191C1.3457 17.291 2.27344 18.1699 3.39648 18.4629C5.49609 19 13.8457 19 13.8457 19C13.8457 19 22.1465 19 24.2461 18.4629C25.3691 18.1699 26.2969 17.291 26.5898 16.1191C27.1758 14.0195 27.1758 9.67383 27.1758 9.67383C27.1758 9.67383 27.1758 5.2793 26.5898 3.22852ZM11.1113 13.6289V5.71875L18.0449 9.67383L11.1113 13.6289Z" fill="white"/>
</svg>
